<svg width="300" height="300" viewBox="0 0 300 300" fill="none" xmlns="http://www.w3.org/2000/svg">
<path d="M242.4 87.6L212.4 57.6C201.3 46.5 182.4 44.4 159.9 51.9C138 59.1 115.2 74.4 94.8 94.5C74.4 114.6 59.1 138 51.9 159.9C44.4 182.7 46.2 201.3 57.6 212.4L87.6 242.4C95.1 249.3 105 252.9 115.2 252.6C123.6 252.3 132.3 250.8 140.4 248.1C162.3 240.9 185.1 225.6 205.5 205.5C225.9 185.4 240.9 162 248.1 140.1C255.6 117.6 253.5 98.7 242.4 87.6ZM60.6 162.6C67.5 142.2 81.9 120.3 101.1 101.1C120.3 81.9 142.5 67.5 162.6 60.6C169.8 58.2 177.3 56.7 184.8 56.4C192.6 56.1 200.1 58.8 205.8 63.9C209.4 67.5 211.8 72.3 212.7 77.4C204.9 77.7 197.1 79.2 189.6 81.9C167.7 89.1 144.6 104.4 124.2 124.5C103.8 144.6 89.1 168 81.9 189.9C79.2 197.4 77.7 205.2 77.4 213C72.3 212.1 67.5 209.7 63.9 206.1C55.2 197.4 54 182.1 60.6 162.6ZM213.6 86.4C213.3 93.6 211.8 100.5 209.7 107.1C202.8 127.5 188.4 149.4 169.2 168.6C150 187.8 127.8 202.8 107.4 209.4C100.5 211.8 93.6 213 86.4 213.3C86.7 206.1 88.2 199.2 90.6 192.3C97.5 171.9 111.9 150 131.1 130.8C150.3 111.6 172.5 97.2 192.9 90.3C199.5 88.2 206.4 86.7 213.6 86.4ZM239.4 137.1C232.5 157.5 218.1 179.4 198.9 198.6C179.7 217.8 157.8 232.8 137.4 239.4C118.2 246 102.6 244.5 93.9 236.1C90.3 232.5 87.9 227.7 87 222.6C94.8 222.3 102.6 220.8 110.1 218.1C132 210.9 155.1 195.6 175.5 175.5C195.9 155.4 210.9 132 218.1 110.1C220.8 102.6 222.3 94.8 222.6 87C227.7 87.9 232.5 90.3 236.1 93.9C244.8 102.6 246 117.9 239.4 137.1Z" fill="white"/>
</svg>
